<mxfile host="app.diagrams.net" modified="2020-11-13T12:48:08.831Z" agent="5.0 (Windows)" etag="YCrWfmx63fg3Uz7BN_BV" version="13.9.7" type="github">
  <diagram id="C5RBs43oDa-KdzZeNtuy" name="Page-1">
    <mxGraphModel dx="981" dy="526" grid="1" gridSize="10" guides="1" tooltips="1" connect="1" arrows="1" fold="1" page="1" pageScale="1" pageWidth="827" pageHeight="1169" math="0" shadow="0">
      <root>
        <mxCell id="WIyWlLk6GJQsqaUBKTNV-0" />
        <mxCell id="WIyWlLk6GJQsqaUBKTNV-1" parent="WIyWlLk6GJQsqaUBKTNV-0" />
        <mxCell id="pPSNxypL9fmhpAs0OBv2-0" value="Person" style="swimlane;fontStyle=1;align=center;verticalAlign=top;childLayout=stackLayout;horizontal=1;startSize=26;horizontalStack=0;resizeParent=1;resizeParentMax=0;resizeLast=0;collapsible=1;marginBottom=0;" vertex="1" parent="WIyWlLk6GJQsqaUBKTNV-1">
          <mxGeometry x="340" y="30" width="160" height="114" as="geometry" />
        </mxCell>
        <mxCell id="pPSNxypL9fmhpAs0OBv2-1" value="+ ID: int&#xa;+ name: string&#xa;" style="text;strokeColor=none;fillColor=none;align=left;verticalAlign=top;spacingLeft=4;spacingRight=4;overflow=hidden;rotatable=0;points=[[0,0.5],[1,0.5]];portConstraint=eastwest;" vertex="1" parent="pPSNxypL9fmhpAs0OBv2-0">
          <mxGeometry y="26" width="160" height="54" as="geometry" />
        </mxCell>
        <mxCell id="pPSNxypL9fmhpAs0OBv2-2" value="" style="line;strokeWidth=1;fillColor=none;align=left;verticalAlign=middle;spacingTop=-1;spacingLeft=3;spacingRight=3;rotatable=0;labelPosition=right;points=[];portConstraint=eastwest;" vertex="1" parent="pPSNxypL9fmhpAs0OBv2-0">
          <mxGeometry y="80" width="160" height="8" as="geometry" />
        </mxCell>
        <mxCell id="pPSNxypL9fmhpAs0OBv2-3" value="newPerson(string): int" style="text;strokeColor=none;fillColor=none;align=left;verticalAlign=top;spacingLeft=4;spacingRight=4;overflow=hidden;rotatable=0;points=[[0,0.5],[1,0.5]];portConstraint=eastwest;" vertex="1" parent="pPSNxypL9fmhpAs0OBv2-0">
          <mxGeometry y="88" width="160" height="26" as="geometry" />
        </mxCell>
        <mxCell id="pPSNxypL9fmhpAs0OBv2-12" style="edgeStyle=orthogonalEdgeStyle;rounded=0;orthogonalLoop=1;jettySize=auto;html=1;exitX=0.5;exitY=0;exitDx=0;exitDy=0;endArrow=block;endFill=0;endSize=12;" edge="1" parent="WIyWlLk6GJQsqaUBKTNV-1" source="pPSNxypL9fmhpAs0OBv2-4" target="pPSNxypL9fmhpAs0OBv2-1">
          <mxGeometry relative="1" as="geometry" />
        </mxCell>
        <mxCell id="pPSNxypL9fmhpAs0OBv2-4" value="User" style="swimlane;fontStyle=1;align=center;verticalAlign=top;childLayout=stackLayout;horizontal=1;startSize=26;horizontalStack=0;resizeParent=1;resizeParentMax=0;resizeLast=0;collapsible=1;marginBottom=0;" vertex="1" parent="WIyWlLk6GJQsqaUBKTNV-1">
          <mxGeometry x="60" y="180" width="210" height="130" as="geometry" />
        </mxCell>
        <mxCell id="pPSNxypL9fmhpAs0OBv2-5" value="+ habits: list(Habit)&#xa;+ habitNum: int&#xa;+ coach: Coach *&#xa;" style="text;strokeColor=none;fillColor=none;align=left;verticalAlign=top;spacingLeft=4;spacingRight=4;overflow=hidden;rotatable=0;points=[[0,0.5],[1,0.5]];portConstraint=eastwest;" vertex="1" parent="pPSNxypL9fmhpAs0OBv2-4">
          <mxGeometry y="26" width="210" height="54" as="geometry" />
        </mxCell>
        <mxCell id="pPSNxypL9fmhpAs0OBv2-6" value="" style="line;strokeWidth=1;fillColor=none;align=left;verticalAlign=middle;spacingTop=-1;spacingLeft=3;spacingRight=3;rotatable=0;labelPosition=right;points=[];portConstraint=eastwest;" vertex="1" parent="pPSNxypL9fmhpAs0OBv2-4">
          <mxGeometry y="80" width="210" height="8" as="geometry" />
        </mxCell>
        <mxCell id="pPSNxypL9fmhpAs0OBv2-7" value="+ newUser(string): int&#xa;+ displayHabits(habits): list(habit)" style="text;strokeColor=none;fillColor=none;align=left;verticalAlign=top;spacingLeft=4;spacingRight=4;overflow=hidden;rotatable=0;points=[[0,0.5],[1,0.5]];portConstraint=eastwest;" vertex="1" parent="pPSNxypL9fmhpAs0OBv2-4">
          <mxGeometry y="88" width="210" height="42" as="geometry" />
        </mxCell>
        <mxCell id="pPSNxypL9fmhpAs0OBv2-13" style="edgeStyle=orthogonalEdgeStyle;rounded=0;orthogonalLoop=1;jettySize=auto;html=1;exitX=0.5;exitY=0;exitDx=0;exitDy=0;entryX=1;entryY=0.5;entryDx=0;entryDy=0;endArrow=block;endFill=0;endSize=14;" edge="1" parent="WIyWlLk6GJQsqaUBKTNV-1" source="pPSNxypL9fmhpAs0OBv2-8" target="pPSNxypL9fmhpAs0OBv2-1">
          <mxGeometry relative="1" as="geometry">
            <mxPoint x="620" y="50" as="targetPoint" />
          </mxGeometry>
        </mxCell>
        <mxCell id="pPSNxypL9fmhpAs0OBv2-8" value="Coach" style="swimlane;fontStyle=1;align=center;verticalAlign=top;childLayout=stackLayout;horizontal=1;startSize=26;horizontalStack=0;resizeParent=1;resizeParentMax=0;resizeLast=0;collapsible=1;marginBottom=0;" vertex="1" parent="WIyWlLk6GJQsqaUBKTNV-1">
          <mxGeometry x="470" y="170" width="320" height="170" as="geometry" />
        </mxCell>
        <mxCell id="pPSNxypL9fmhpAs0OBv2-9" value="+ users: list(User) " style="text;strokeColor=none;fillColor=none;align=left;verticalAlign=top;spacingLeft=4;spacingRight=4;overflow=hidden;rotatable=0;points=[[0,0.5],[1,0.5]];portConstraint=eastwest;" vertex="1" parent="pPSNxypL9fmhpAs0OBv2-8">
          <mxGeometry y="26" width="320" height="26" as="geometry" />
        </mxCell>
        <mxCell id="pPSNxypL9fmhpAs0OBv2-10" value="" style="line;strokeWidth=1;fillColor=none;align=left;verticalAlign=middle;spacingTop=-1;spacingLeft=3;spacingRight=3;rotatable=0;labelPosition=right;points=[];portConstraint=eastwest;" vertex="1" parent="pPSNxypL9fmhpAs0OBv2-8">
          <mxGeometry y="52" width="320" height="8" as="geometry" />
        </mxCell>
        <mxCell id="pPSNxypL9fmhpAs0OBv2-11" value="+ newCoach(string): int&#xa;+ displayAllUses(users): bool&#xa;+ addUser(users, userID): bool&#xa;+ deleteUser(users, userID): bool&#xa;+ viewUserHabits(User): list(Habit)&#xa;+ checkPushNotification(UserID, Checkin): void&#xa;&#xa;&#xa;" style="text;strokeColor=none;fillColor=none;align=left;verticalAlign=top;spacingLeft=4;spacingRight=4;overflow=hidden;rotatable=0;points=[[0,0.5],[1,0.5]];portConstraint=eastwest;" vertex="1" parent="pPSNxypL9fmhpAs0OBv2-8">
          <mxGeometry y="60" width="320" height="110" as="geometry" />
        </mxCell>
        <mxCell id="pPSNxypL9fmhpAs0OBv2-16" value="" style="endArrow=diamondThin;endFill=0;endSize=24;html=1;strokeWidth=1;entryX=0;entryY=0.5;entryDx=0;entryDy=0;exitX=1.007;exitY=0.072;exitDx=0;exitDy=0;exitPerimeter=0;" edge="1" parent="WIyWlLk6GJQsqaUBKTNV-1" source="pPSNxypL9fmhpAs0OBv2-5" target="pPSNxypL9fmhpAs0OBv2-9">
          <mxGeometry width="160" relative="1" as="geometry">
            <mxPoint x="250" y="160" as="sourcePoint" />
            <mxPoint x="410" y="160" as="targetPoint" />
          </mxGeometry>
        </mxCell>
        <mxCell id="pPSNxypL9fmhpAs0OBv2-17" value="0...*" style="edgeLabel;html=1;align=center;verticalAlign=middle;resizable=0;points=[];" vertex="1" connectable="0" parent="pPSNxypL9fmhpAs0OBv2-16">
          <mxGeometry x="-0.924" y="2" relative="1" as="geometry">
            <mxPoint x="2.9499999999999993" y="-9.85" as="offset" />
          </mxGeometry>
        </mxCell>
        <mxCell id="pPSNxypL9fmhpAs0OBv2-19" value="0..1" style="edgeLabel;html=1;align=center;verticalAlign=middle;resizable=0;points=[];" vertex="1" connectable="0" parent="pPSNxypL9fmhpAs0OBv2-16">
          <mxGeometry x="0.5" y="-3" relative="1" as="geometry">
            <mxPoint x="16.55" y="-14.219999999999999" as="offset" />
          </mxGeometry>
        </mxCell>
        <mxCell id="pPSNxypL9fmhpAs0OBv2-20" value="Habit" style="swimlane;fontStyle=1;align=center;verticalAlign=top;childLayout=stackLayout;horizontal=1;startSize=26;horizontalStack=0;resizeParent=1;resizeParentMax=0;resizeLast=0;collapsible=1;marginBottom=0;" vertex="1" parent="WIyWlLk6GJQsqaUBKTNV-1">
          <mxGeometry x="20" y="425" width="210" height="160" as="geometry" />
        </mxCell>
        <mxCell id="pPSNxypL9fmhpAs0OBv2-21" value="+ habitID: int&#xa;+ habitNae: string&#xa;+ habitHistory: reference&#xa;" style="text;strokeColor=none;fillColor=none;align=left;verticalAlign=top;spacingLeft=4;spacingRight=4;overflow=hidden;rotatable=0;points=[[0,0.5],[1,0.5]];portConstraint=eastwest;" vertex="1" parent="pPSNxypL9fmhpAs0OBv2-20">
          <mxGeometry y="26" width="210" height="54" as="geometry" />
        </mxCell>
        <mxCell id="pPSNxypL9fmhpAs0OBv2-22" value="" style="line;strokeWidth=1;fillColor=none;align=left;verticalAlign=middle;spacingTop=-1;spacingLeft=3;spacingRight=3;rotatable=0;labelPosition=right;points=[];portConstraint=eastwest;" vertex="1" parent="pPSNxypL9fmhpAs0OBv2-20">
          <mxGeometry y="80" width="210" height="8" as="geometry" />
        </mxCell>
        <mxCell id="pPSNxypL9fmhpAs0OBv2-23" value="+ newHabit(string): Habit *&#xa;+ displayHabit(): void&#xa;+ deleteHabit(Habit *, int *): void&#xa;+ checkIn(HabitHistory *): void&#xa;" style="text;strokeColor=none;fillColor=none;align=left;verticalAlign=top;spacingLeft=4;spacingRight=4;overflow=hidden;rotatable=0;points=[[0,0.5],[1,0.5]];portConstraint=eastwest;" vertex="1" parent="pPSNxypL9fmhpAs0OBv2-20">
          <mxGeometry y="88" width="210" height="72" as="geometry" />
        </mxCell>
        <mxCell id="pPSNxypL9fmhpAs0OBv2-24" value="" style="endArrow=diamondThin;endFill=0;endSize=24;html=1;strokeWidth=1;entryX=0.476;entryY=1;entryDx=0;entryDy=0;entryPerimeter=0;exitX=0.666;exitY=0;exitDx=0;exitDy=0;exitPerimeter=0;" edge="1" parent="WIyWlLk6GJQsqaUBKTNV-1" source="pPSNxypL9fmhpAs0OBv2-20" target="pPSNxypL9fmhpAs0OBv2-7">
          <mxGeometry width="160" relative="1" as="geometry">
            <mxPoint x="250" y="430" as="sourcePoint" />
            <mxPoint x="410" y="430" as="targetPoint" />
          </mxGeometry>
        </mxCell>
        <mxCell id="pPSNxypL9fmhpAs0OBv2-25" value="0..*" style="edgeLabel;html=1;align=center;verticalAlign=middle;resizable=0;points=[];" vertex="1" connectable="0" parent="pPSNxypL9fmhpAs0OBv2-24">
          <mxGeometry x="-0.8207" y="-1" relative="1" as="geometry">
            <mxPoint x="9.13" as="offset" />
          </mxGeometry>
        </mxCell>
        <mxCell id="pPSNxypL9fmhpAs0OBv2-26" value="1..1" style="edgeLabel;html=1;align=center;verticalAlign=middle;resizable=0;points=[];" vertex="1" connectable="0" parent="pPSNxypL9fmhpAs0OBv2-24">
          <mxGeometry x="0.4027" relative="1" as="geometry">
            <mxPoint x="10.07" y="-4.31" as="offset" />
          </mxGeometry>
        </mxCell>
        <mxCell id="pPSNxypL9fmhpAs0OBv2-27" value="HabitHistory" style="swimlane;fontStyle=1;align=center;verticalAlign=top;childLayout=stackLayout;horizontal=1;startSize=26;horizontalStack=0;resizeParent=1;resizeParentMax=0;resizeLast=0;collapsible=1;marginBottom=0;" vertex="1" parent="WIyWlLk6GJQsqaUBKTNV-1">
          <mxGeometry x="309" y="445" width="210" height="120" as="geometry" />
        </mxCell>
        <mxCell id="pPSNxypL9fmhpAs0OBv2-28" value="+ habitID: int&#xa;+ habitCheckins: list(Checkin)&#xa;" style="text;strokeColor=none;fillColor=none;align=left;verticalAlign=top;spacingLeft=4;spacingRight=4;overflow=hidden;rotatable=0;points=[[0,0.5],[1,0.5]];portConstraint=eastwest;" vertex="1" parent="pPSNxypL9fmhpAs0OBv2-27">
          <mxGeometry y="26" width="210" height="44" as="geometry" />
        </mxCell>
        <mxCell id="pPSNxypL9fmhpAs0OBv2-29" value="" style="line;strokeWidth=1;fillColor=none;align=left;verticalAlign=middle;spacingTop=-1;spacingLeft=3;spacingRight=3;rotatable=0;labelPosition=right;points=[];portConstraint=eastwest;" vertex="1" parent="pPSNxypL9fmhpAs0OBv2-27">
          <mxGeometry y="70" width="210" height="8" as="geometry" />
        </mxCell>
        <mxCell id="pPSNxypL9fmhpAs0OBv2-30" value="+ newCheckin(): Checkin *&#xa;+ displayHistory(habitCheckins): void" style="text;strokeColor=none;fillColor=none;align=left;verticalAlign=top;spacingLeft=4;spacingRight=4;overflow=hidden;rotatable=0;points=[[0,0.5],[1,0.5]];portConstraint=eastwest;" vertex="1" parent="pPSNxypL9fmhpAs0OBv2-27">
          <mxGeometry y="78" width="210" height="42" as="geometry" />
        </mxCell>
        <mxCell id="pPSNxypL9fmhpAs0OBv2-31" value="&lt;div&gt;1..1&lt;/div&gt;" style="endArrow=diamondThin;endFill=1;endSize=24;html=1;strokeWidth=1;exitX=0;exitY=0.821;exitDx=0;exitDy=0;exitPerimeter=0;entryX=0.99;entryY=1.064;entryDx=0;entryDy=0;entryPerimeter=0;" edge="1" parent="WIyWlLk6GJQsqaUBKTNV-1" source="pPSNxypL9fmhpAs0OBv2-28" target="pPSNxypL9fmhpAs0OBv2-21">
          <mxGeometry x="0.4241" y="-15" width="160" relative="1" as="geometry">
            <mxPoint x="250" y="430" as="sourcePoint" />
            <mxPoint x="260" y="580" as="targetPoint" />
            <mxPoint as="offset" />
          </mxGeometry>
        </mxCell>
        <mxCell id="pPSNxypL9fmhpAs0OBv2-32" value="1..1" style="edgeLabel;html=1;align=center;verticalAlign=middle;resizable=0;points=[];" vertex="1" connectable="0" parent="pPSNxypL9fmhpAs0OBv2-31">
          <mxGeometry x="-0.3309" y="-1" relative="1" as="geometry">
            <mxPoint x="8.16" y="-13.57" as="offset" />
          </mxGeometry>
        </mxCell>
        <mxCell id="pPSNxypL9fmhpAs0OBv2-33" value="Checkin" style="swimlane;fontStyle=1;align=center;verticalAlign=top;childLayout=stackLayout;horizontal=1;startSize=26;horizontalStack=0;resizeParent=1;resizeParentMax=0;resizeLast=0;collapsible=1;marginBottom=0;" vertex="1" parent="WIyWlLk6GJQsqaUBKTNV-1">
          <mxGeometry x="260" y="640" width="290" height="160" as="geometry" />
        </mxCell>
        <mxCell id="pPSNxypL9fmhpAs0OBv2-34" value="+ habitCheckinID: int&#xa;+ checkinDate: date&#xa;+ comments: list(Comment)&#xa;&#xa;" style="text;strokeColor=none;fillColor=none;align=left;verticalAlign=top;spacingLeft=4;spacingRight=4;overflow=hidden;rotatable=0;points=[[0,0.5],[1,0.5]];portConstraint=eastwest;" vertex="1" parent="pPSNxypL9fmhpAs0OBv2-33">
          <mxGeometry y="26" width="290" height="64" as="geometry" />
        </mxCell>
        <mxCell id="pPSNxypL9fmhpAs0OBv2-35" value="" style="line;strokeWidth=1;fillColor=none;align=left;verticalAlign=middle;spacingTop=-1;spacingLeft=3;spacingRight=3;rotatable=0;labelPosition=right;points=[];portConstraint=eastwest;" vertex="1" parent="pPSNxypL9fmhpAs0OBv2-33">
          <mxGeometry y="90" width="290" height="8" as="geometry" />
        </mxCell>
        <mxCell id="pPSNxypL9fmhpAs0OBv2-36" value="+ addComment(Comment): Comment&#xa;+ displayCheckin(habitCheckinID): void&#xa;+ addComment(comments, Person *): Comment *&#xa;" style="text;strokeColor=none;fillColor=none;align=left;verticalAlign=top;spacingLeft=4;spacingRight=4;overflow=hidden;rotatable=0;points=[[0,0.5],[1,0.5]];portConstraint=eastwest;" vertex="1" parent="pPSNxypL9fmhpAs0OBv2-33">
          <mxGeometry y="98" width="290" height="62" as="geometry" />
        </mxCell>
        <mxCell id="pPSNxypL9fmhpAs0OBv2-37" value="Comment" style="swimlane;fontStyle=1;align=center;verticalAlign=top;childLayout=stackLayout;horizontal=1;startSize=26;horizontalStack=0;resizeParent=1;resizeParentMax=0;resizeLast=0;collapsible=1;marginBottom=0;" vertex="1" parent="WIyWlLk6GJQsqaUBKTNV-1">
          <mxGeometry x="667" y="640" width="160" height="130" as="geometry" />
        </mxCell>
        <mxCell id="pPSNxypL9fmhpAs0OBv2-38" value="+ commentID: int&#xa;+ commentText: string&#xa;+ commentDate: date&#xa;+ commenter: Person *&#xa;" style="text;strokeColor=none;fillColor=none;align=left;verticalAlign=top;spacingLeft=4;spacingRight=4;overflow=hidden;rotatable=0;points=[[0,0.5],[1,0.5]];portConstraint=eastwest;" vertex="1" parent="pPSNxypL9fmhpAs0OBv2-37">
          <mxGeometry y="26" width="160" height="64" as="geometry" />
        </mxCell>
        <mxCell id="pPSNxypL9fmhpAs0OBv2-39" value="" style="line;strokeWidth=1;fillColor=none;align=left;verticalAlign=middle;spacingTop=-1;spacingLeft=3;spacingRight=3;rotatable=0;labelPosition=right;points=[];portConstraint=eastwest;" vertex="1" parent="pPSNxypL9fmhpAs0OBv2-37">
          <mxGeometry y="90" width="160" height="8" as="geometry" />
        </mxCell>
        <mxCell id="pPSNxypL9fmhpAs0OBv2-40" value="+ displayComment(): void" style="text;strokeColor=none;fillColor=none;align=left;verticalAlign=top;spacingLeft=4;spacingRight=4;overflow=hidden;rotatable=0;points=[[0,0.5],[1,0.5]];portConstraint=eastwest;" vertex="1" parent="pPSNxypL9fmhpAs0OBv2-37">
          <mxGeometry y="98" width="160" height="32" as="geometry" />
        </mxCell>
        <mxCell id="pPSNxypL9fmhpAs0OBv2-41" value="" style="endArrow=diamondThin;endFill=0;endSize=24;html=1;strokeWidth=1;exitX=0;exitY=0.375;exitDx=0;exitDy=0;exitPerimeter=0;entryX=1.002;entryY=0.351;entryDx=0;entryDy=0;entryPerimeter=0;" edge="1" parent="WIyWlLk6GJQsqaUBKTNV-1" source="pPSNxypL9fmhpAs0OBv2-38" target="pPSNxypL9fmhpAs0OBv2-34">
          <mxGeometry width="160" relative="1" as="geometry">
            <mxPoint x="580" y="560" as="sourcePoint" />
            <mxPoint x="550" y="710" as="targetPoint" />
          </mxGeometry>
        </mxCell>
        <mxCell id="pPSNxypL9fmhpAs0OBv2-42" value="0..*" style="text;html=1;align=center;verticalAlign=middle;resizable=0;points=[];autosize=1;" vertex="1" parent="WIyWlLk6GJQsqaUBKTNV-1">
          <mxGeometry x="550" y="690" width="30" height="20" as="geometry" />
        </mxCell>
      </root>
    </mxGraphModel>
  </diagram>
</mxfile>
